<svg width="1744.502" height="304.503" viewBox="0 0 1744.502 304.503" xmlns="http://www.w3.org/2000/svg"><g id="svgGroup" stroke-linecap="round" fill-rule="evenodd" font-size="9pt" stroke="#ffffff" stroke-width="0.25mm" fill="#ffffff" style="stroke:#ffffff;stroke-width:0.25mm;fill:#ffffff"><path d="M 125.402 78.3 L 125.402 54.6 L 176.702 54.6 L 176.702 221.7 A 100.818 100.818 0 0 1 173.476 247.598 A 87.135 87.135 0 0 1 167.552 263.55 Q 158.402 282.3 139.652 293.4 A 75.919 75.919 0 0 1 117.147 302.061 Q 107.55 304.176 96.44 304.457 A 136.036 136.036 0 0 1 93.002 304.5 A 128.852 128.852 0 0 1 67.584 302.134 Q 47.319 298.056 32.702 286.95 A 65.909 65.909 0 0 1 6.558 241.494 A 85.063 85.063 0 0 1 6.302 239.4 L 57.002 239.4 A 24.06 24.06 0 0 0 67.504 253.976 A 31.561 31.561 0 0 0 68.402 254.55 A 35.939 35.939 0 0 0 79.855 259.038 Q 84.827 260.1 90.602 260.1 A 44.785 44.785 0 0 0 101.408 258.866 A 31.333 31.333 0 0 0 115.952 250.95 A 27.508 27.508 0 0 0 122.494 240.629 Q 125.402 232.849 125.402 221.7 L 125.402 198 Q 117.902 209.7 104.702 217.05 A 57.513 57.513 0 0 1 85.439 223.531 A 75.262 75.262 0 0 1 73.802 224.4 Q 53.102 224.4 36.302 213.75 Q 19.502 203.1 9.752 183.45 A 92.461 92.461 0 0 1 1.261 155.749 A 120.759 120.759 0 0 1 0.002 138 A 116.139 116.139 0 0 1 2.144 115.197 A 89.152 89.152 0 0 1 9.752 92.7 A 78.358 78.358 0 0 1 22.951 73.61 A 68.212 68.212 0 0 1 36.302 62.7 Q 53.102 52.2 73.802 52.2 Q 91.502 52.2 104.852 59.4 A 57.212 57.212 0 0 1 117.924 68.924 A 49.525 49.525 0 0 1 125.402 78.3 Z M 863.102 222 L 799.502 222 L 748.502 151.8 L 748.502 222 L 697.202 222 L 697.202 0 L 748.502 0 L 748.502 122.7 L 799.202 54.6 L 862.502 54.6 L 792.902 138.6 L 863.102 222 Z M 1303.502 198.6 L 1303.502 301.8 L 1252.202 301.8 L 1252.202 54.6 L 1303.502 54.6 L 1303.502 78.3 A 54.721 54.721 0 0 1 1320.991 61.27 A 65.401 65.401 0 0 1 1324.202 59.4 Q 1337.402 52.2 1355.102 52.2 Q 1375.802 52.2 1392.602 62.7 A 70.766 70.766 0 0 1 1415.763 86.544 A 87.26 87.26 0 0 1 1419.152 92.7 A 90.958 90.958 0 0 1 1427.53 119.536 A 119.741 119.741 0 0 1 1428.902 138 A 115.8 115.8 0 0 1 1426.54 161.907 A 89.993 89.993 0 0 1 1419.152 183.45 A 79.394 79.394 0 0 1 1405.952 202.709 A 68.88 68.88 0 0 1 1392.602 213.75 Q 1375.802 224.4 1355.102 224.4 Q 1337.702 224.4 1324.352 217.2 Q 1311.002 210 1303.502 198.6 Z M 1039.502 150.6 L 923.402 150.6 A 48.196 48.196 0 0 0 925.13 160.456 Q 926.936 166.619 930.44 171.148 A 27.587 27.587 0 0 0 933.452 174.45 A 30.466 30.466 0 0 0 954.001 182.682 A 39.473 39.473 0 0 0 955.202 182.7 A 35.05 35.05 0 0 0 965.937 181.157 Q 976.295 177.836 981.488 167.363 A 35.786 35.786 0 0 0 981.902 166.5 L 1036.502 166.5 Q 1032.302 183 1021.352 196.2 A 75.595 75.595 0 0 1 994.927 216.426 A 87.163 87.163 0 0 1 993.902 216.9 A 83.961 83.961 0 0 1 967.564 223.871 A 103.176 103.176 0 0 1 957.002 224.4 A 98.696 98.696 0 0 1 932.388 221.437 A 82.63 82.63 0 0 1 913.202 213.9 Q 894.002 203.4 883.202 183.9 A 85.262 85.262 0 0 1 873.678 155.464 A 111.445 111.445 0 0 1 872.402 138.3 Q 872.402 112.2 883.052 92.7 Q 893.702 73.2 912.902 62.7 A 85.421 85.421 0 0 1 943.446 53.031 A 107.743 107.743 0 0 1 957.002 52.2 A 98.828 98.828 0 0 1 981.296 55.079 A 81.91 81.91 0 0 1 1000.202 62.4 Q 1019.102 72.6 1029.752 91.5 A 82.094 82.094 0 0 1 1039.335 120.284 A 106.531 106.531 0 0 1 1040.402 135.6 A 126.761 126.761 0 0 1 1039.895 146.738 A 144.508 144.508 0 0 1 1039.502 150.6 Z M 1224.302 150.6 L 1108.202 150.6 A 48.196 48.196 0 0 0 1109.93 160.456 Q 1111.736 166.619 1115.24 171.148 A 27.587 27.587 0 0 0 1118.252 174.45 A 30.466 30.466 0 0 0 1138.801 182.682 A 39.473 39.473 0 0 0 1140.002 182.7 A 35.05 35.05 0 0 0 1150.737 181.157 Q 1161.095 177.836 1166.288 167.363 A 35.786 35.786 0 0 0 1166.702 166.5 L 1221.302 166.5 Q 1217.102 183 1206.152 196.2 A 75.595 75.595 0 0 1 1179.727 216.426 A 87.163 87.163 0 0 1 1178.702 216.9 A 83.961 83.961 0 0 1 1152.364 223.871 A 103.176 103.176 0 0 1 1141.802 224.4 A 98.696 98.696 0 0 1 1117.188 221.437 A 82.63 82.63 0 0 1 1098.002 213.9 Q 1078.802 203.4 1068.002 183.9 A 85.262 85.262 0 0 1 1058.478 155.464 A 111.445 111.445 0 0 1 1057.202 138.3 Q 1057.202 112.2 1067.852 92.7 Q 1078.502 73.2 1097.702 62.7 A 85.421 85.421 0 0 1 1128.246 53.031 A 107.743 107.743 0 0 1 1141.802 52.2 A 98.828 98.828 0 0 1 1166.096 55.079 A 81.91 81.91 0 0 1 1185.002 62.4 Q 1203.902 72.6 1214.552 91.5 A 82.094 82.094 0 0 1 1224.135 120.284 A 106.531 106.531 0 0 1 1225.202 135.6 A 126.761 126.761 0 0 1 1224.695 146.738 A 144.508 144.508 0 0 1 1224.302 150.6 Z M 1612.802 150.6 L 1496.702 150.6 A 48.196 48.196 0 0 0 1498.43 160.456 Q 1500.236 166.619 1503.74 171.148 A 27.587 27.587 0 0 0 1506.752 174.45 A 30.466 30.466 0 0 0 1527.301 182.682 A 39.473 39.473 0 0 0 1528.502 182.7 A 35.05 35.05 0 0 0 1539.237 181.157 Q 1549.595 177.836 1554.788 167.363 A 35.786 35.786 0 0 0 1555.202 166.5 L 1609.802 166.5 Q 1605.602 183 1594.652 196.2 A 75.595 75.595 0 0 1 1568.227 216.426 A 87.163 87.163 0 0 1 1567.202 216.9 A 83.961 83.961 0 0 1 1540.864 223.871 A 103.176 103.176 0 0 1 1530.302 224.4 A 98.696 98.696 0 0 1 1505.688 221.437 A 82.63 82.63 0 0 1 1486.502 213.9 Q 1467.302 203.4 1456.502 183.9 A 85.262 85.262 0 0 1 1446.978 155.464 A 111.445 111.445 0 0 1 1445.702 138.3 Q 1445.702 112.2 1456.352 92.7 Q 1467.002 73.2 1486.202 62.7 A 85.421 85.421 0 0 1 1516.746 53.031 A 107.743 107.743 0 0 1 1530.302 52.2 A 98.828 98.828 0 0 1 1554.596 55.079 A 81.91 81.91 0 0 1 1573.502 62.4 Q 1592.402 72.6 1603.052 91.5 A 82.094 82.094 0 0 1 1612.635 120.284 A 106.531 106.531 0 0 1 1613.702 135.6 A 126.761 126.761 0 0 1 1613.195 146.738 A 144.508 144.508 0 0 1 1612.802 150.6 Z M 520.202 78.3 L 520.202 54.6 L 571.502 54.6 L 571.502 222 L 520.202 222 L 520.202 198.3 A 54.106 54.106 0 0 1 503.381 214.84 A 65.301 65.301 0 0 1 499.352 217.2 A 59.415 59.415 0 0 1 479.956 223.549 A 77.15 77.15 0 0 1 468.302 224.4 Q 447.902 224.4 431.102 213.75 Q 414.302 203.1 404.552 183.45 A 92.461 92.461 0 0 1 396.061 155.749 A 120.759 120.759 0 0 1 394.802 138 A 116.139 116.139 0 0 1 396.944 115.197 A 89.152 89.152 0 0 1 404.552 92.7 A 78.358 78.358 0 0 1 417.751 73.61 A 68.212 68.212 0 0 1 431.102 62.7 Q 447.902 52.2 468.602 52.2 Q 486.302 52.2 499.652 59.4 A 57.212 57.212 0 0 1 512.724 68.924 A 49.525 49.525 0 0 1 520.202 78.3 Z M 1744.502 52.8 L 1744.502 107.1 L 1730.402 107.1 Q 1718.373 107.1 1710.113 110.338 A 29.368 29.368 0 0 0 1701.602 115.35 A 23.722 23.722 0 0 0 1695.221 124.5 Q 1692.002 132.313 1692.002 144.3 L 1692.002 222 L 1640.702 222 L 1640.702 54.6 L 1692.002 54.6 L 1692.002 82.5 Q 1701.002 68.7 1714.502 60.75 A 57.966 57.966 0 0 1 1744.244 52.8 A 68.349 68.349 0 0 1 1744.502 52.8 Z M 262.803 220.747 A 98.963 98.963 0 0 0 290.102 224.4 A 110.454 110.454 0 0 0 297.675 224.144 A 92.003 92.003 0 0 0 334.652 213.9 Q 354.602 203.4 366.152 183.75 Q 377.702 164.1 377.702 138.3 A 106.701 106.701 0 0 0 376.897 125.028 A 84.275 84.275 0 0 0 366.302 92.85 Q 354.902 73.2 335.102 62.7 A 87.225 87.225 0 0 0 318.222 55.902 A 99.445 99.445 0 0 0 290.702 52.2 A 109.828 109.828 0 0 0 282.387 52.51 A 90.803 90.803 0 0 0 246.302 62.7 Q 226.502 73.2 215.102 92.85 A 81.357 81.357 0 0 0 206.732 113.329 A 99.026 99.026 0 0 0 203.702 138.3 A 108.209 108.209 0 0 0 204.8 153.968 A 83.453 83.453 0 0 0 214.952 183.9 Q 226.202 203.4 245.852 213.9 A 85.96 85.96 0 0 0 262.803 220.747 Z M 608.702 0 L 660.002 0 L 660.002 222 L 608.702 222 L 608.702 0 Z M 1376.702 138 A 55.975 55.975 0 0 0 1375.443 125.775 Q 1373.041 115.036 1366.052 107.85 A 35.053 35.053 0 0 0 1340.772 96.911 A 43.801 43.801 0 0 0 1339.802 96.9 A 34.508 34.508 0 0 0 1314.522 107.317 A 42.255 42.255 0 0 0 1313.852 108 Q 1303.202 119.1 1303.202 138.3 Q 1303.202 157.5 1313.852 168.6 Q 1324.502 179.7 1339.802 179.7 A 34.74 34.74 0 0 0 1365.222 169.142 A 43.42 43.42 0 0 0 1365.902 168.45 A 37.62 37.62 0 0 0 1375.425 150.261 A 55.708 55.708 0 0 0 1376.702 138 Z M 125.402 138.3 Q 125.402 119.1 114.752 108 Q 104.102 96.9 88.802 96.9 A 34.767 34.767 0 0 0 63.353 107.343 A 42.103 42.103 0 0 0 62.852 107.85 A 36.233 36.233 0 0 0 53.699 124.76 Q 52.202 130.8 52.202 138 A 55.975 55.975 0 0 0 53.577 150.773 A 37.648 37.648 0 0 0 62.852 168.45 A 35.402 35.402 0 0 0 76.304 177.547 A 35.644 35.644 0 0 0 88.802 179.7 A 34.508 34.508 0 0 0 114.081 169.283 A 42.255 42.255 0 0 0 114.752 168.6 Q 125.402 157.5 125.402 138.3 Z M 520.202 138.3 Q 520.202 119.1 509.552 108 Q 498.902 96.9 483.602 96.9 A 34.767 34.767 0 0 0 458.153 107.343 A 42.103 42.103 0 0 0 457.652 107.85 A 36.233 36.233 0 0 0 448.499 124.76 Q 447.002 130.8 447.002 138 A 55.975 55.975 0 0 0 448.377 150.773 A 37.648 37.648 0 0 0 457.652 168.45 A 35.402 35.402 0 0 0 471.104 177.547 A 35.644 35.644 0 0 0 483.602 179.7 A 34.508 34.508 0 0 0 508.881 169.283 A 42.255 42.255 0 0 0 509.552 168.6 Q 520.202 157.5 520.202 138.3 Z M 290.102 180 A 33.309 33.309 0 0 0 314.5 169.864 A 41.546 41.546 0 0 0 315.152 169.2 A 34.979 34.979 0 0 0 323.34 154.73 Q 324.961 149.297 325.366 142.772 A 72.145 72.145 0 0 0 325.502 138.3 A 64.423 64.423 0 0 0 324.445 126.244 Q 322.243 114.698 315.452 107.4 A 33.05 33.05 0 0 0 301.878 98.382 A 34.267 34.267 0 0 0 290.702 96.6 A 34.547 34.547 0 0 0 276.98 99.261 A 32.799 32.799 0 0 0 265.802 107.25 A 34.102 34.102 0 0 0 258.396 120.277 Q 256.72 125.506 256.17 131.845 A 74.731 74.731 0 0 0 255.902 138.3 Q 255.902 152.583 260.825 162.17 A 32.772 32.772 0 0 0 265.652 169.2 A 31.376 31.376 0 0 0 288.283 179.958 A 38.802 38.802 0 0 0 290.102 180 Z M 923.702 122.1 L 987.902 122.1 A 31.266 31.266 0 0 0 986.528 112.611 A 24.972 24.972 0 0 0 978.902 101.1 Q 969.902 93.3 956.402 93.3 A 36.722 36.722 0 0 0 945.37 94.893 A 30.544 30.544 0 0 0 934.652 100.8 A 30.257 30.257 0 0 0 925.806 113.722 A 42.955 42.955 0 0 0 923.702 122.1 Z M 1108.502 122.1 L 1172.702 122.1 A 31.266 31.266 0 0 0 1171.328 112.611 A 24.972 24.972 0 0 0 1163.702 101.1 Q 1154.702 93.3 1141.202 93.3 A 36.722 36.722 0 0 0 1130.17 94.893 A 30.544 30.544 0 0 0 1119.452 100.8 A 30.257 30.257 0 0 0 1110.606 113.722 A 42.955 42.955 0 0 0 1108.502 122.1 Z M 1497.002 122.1 L 1561.202 122.1 A 31.266 31.266 0 0 0 1559.828 112.611 A 24.972 24.972 0 0 0 1552.202 101.1 Q 1543.202 93.3 1529.702 93.3 A 36.722 36.722 0 0 0 1518.67 94.893 A 30.544 30.544 0 0 0 1507.952 100.8 A 30.257 30.257 0 0 0 1499.106 113.722 A 42.955 42.955 0 0 0 1497.002 122.1 Z" vector-effect="non-scaling-stroke"/></g></svg>