<svg width="500" height="175" viewBox="0 0 500 175" fill="none" xmlns="http://www.w3.org/2000/svg" preserveAspectRatio="xMidYMid">
    <defs>
        <filter id="editing-marble" x="-100%" y="-100%" width="300%" height="300%">
            <feFlood flood-color="#4876EE" result="flood-1"></feFlood>
            <feComposite operator="in" in="flood-1" in2="SourceAlpha" result="flood-2"></feComposite>
            <feTurbulence baseFrequency="0.07" type="fractalNoise" numOctaves="1" seed="2" result="bs-1"></feTurbulence>
            <feGaussianBlur stdDeviation="1" in="flood-2" result="bs-2"></feGaussianBlur>
            <feDisplacementMap scale="110" in="bs-2" in2="bs-1" result="bs-3"></feDisplacementMap>
            <feComposite operator="in" in="bs-3" in2="SourceAlpha" result="texture"></feComposite>
            <feMerge>
                <feMergeNode in="SourceGraphic"></feMergeNode>
                <feMergeNode in="texture"></feMergeNode>
            </feMerge>
        </filter>
    </defs>
    <g filter="url(#editing-marble)">
        <g transform="translate(34.129987716674805, 106.36000061035156)">
            <path d="M19.97 0.19L30.72-37.95L41.54 0.19L46.66 0.19L59.84-46.98L53.82-46.98L43.97-10.62L33.86-46.59L27.90-46.59L17.54-10.75L7.74-46.98L1.92-46.98L14.85 0.19L19.97 0.19ZM82.24-23.55L82.24-23.55L82.11-22.66L82.11-22.66Q66.50-22.34 62.72-16.38L62.72-16.38L62.72-16.38Q60.80-13.18 60.80-9.09L60.80-9.09L60.80-8.90L60.80-8.90Q60.80-4.93 64-2.11L64-2.11L64-2.11Q67.20 0.70 73.41 0.70L73.41 0.70L73.41 0.70Q79.04 0.06 82.11-5.25L82.11-5.25L82.11-5.25Q82.37-1.54 84.99 0L84.99 0L89.66 0.13L89.66 0.13Q87.74-3.71 87.74-6.27L87.74-6.27L87.74-20.74L87.74-20.74Q87.74-34.43 75.14-34.43L75.14-34.43L74.82-34.43L74.82-34.43Q66.18-34.43 61.12-29.38L61.12-29.38L64.32-26.30L64.32-26.30Q68.16-29.89 75.20-29.89L75.20-29.89L75.20-29.89Q82.24-29.89 82.24-23.55ZM67.65-6.27L67.65-6.27L67.65-6.27Q66.69-7.62 66.69-9.66L66.69-9.66L66.69-9.66Q66.69-13.38 70.66-15.74L70.66-15.74L70.66-15.74Q74.62-18.18 82.11-18.43L82.11-18.43L82.11-13.38L82.11-13.38Q82.11-12.67 81.66-11.39L81.66-11.39L81.66-11.39Q80.58-7.74 78.40-6.34L78.40-6.34L78.40-6.34Q76.29-4.86 72.45-4.86L72.45-4.86L72.45-4.86Q68.54-4.86 67.65-6.27L67.65-6.27ZM113.86-3.58L113.47-5.89L113.47-5.89Q111.81-4.22 108.35-4.22L108.35-4.22L108.35-4.22Q103.04-4.22 103.04-9.47L103.04-9.47L103.04-28.16L112.58-28.16L112.58-32.83L103.04-32.83L103.04-42.75L97.22-42.75L97.22-32.83L92.54-32.83L92.54-28.16L97.22-28.16L97.22-8.58L97.22-8.58Q97.22 0.45 106.05 0.45L106.05 0.45L106.05 0.45Q112.38 0.45 113.86-3.58L113.86-3.58ZM145.15-6.27L140.67-6.66L140.67-6.66Q140.03-4.48 134.85-4.48L134.85-4.48L134.85-4.48Q129.60-4.48 126.66-8.32L126.66-8.32L126.66-8.32Q123.65-12.10 123.65-17.28L123.65-17.28L123.65-17.28Q123.65-22.46 127.04-25.79L127.04-25.79L127.04-25.79Q130.37-29.12 135.10-29.12L135.10-29.12L135.10-29.12Q139.78-29.12 140.74-25.98L140.74-25.98L145.15-25.98L145.15-25.98Q143.94-33.92 134.08-33.92L134.08-33.92L134.08-33.92Q127.94-33.92 122.82-29.70L122.82-29.70L122.82-29.70Q117.70-25.34 117.70-17.22L117.70-17.22L117.70-17.22Q117.70-9.09 122.56-4.22L122.56-4.22L122.56-4.22Q127.36 0.77 135.42 0.77L135.42 0.77L135.42 0.77Q143.49 0.77 145.15-6.27L145.15-6.27ZM173.25-22.08L173.25 0.19L179.52 0.19L179.52-23.17L179.52-23.17Q179.52-34.43 166.02-34.43L166.02-34.43L166.02-34.43Q160.77-34.43 157.82-28.22L157.82-28.22L157.82-47.36L151.87-47.36L151.87 0.19L157.82 0.19L157.82-18.18L157.82-18.18Q157.82-22.72 159.42-26.24L159.42-26.24L159.42-26.24Q161.09-29.82 166.40-29.82L166.40-29.82L166.40-29.82Q173.25-29.82 173.25-22.08L173.25-22.08ZM188.48-44.74L188.48-38.46L194.88-38.46L194.88-44.74L188.48-44.74ZM188.93-33.34L188.93 0.19L194.75 0.19L194.75-33.34L188.93-33.34ZM226.88-20.42L226.88 0.19L232.83 0.19L232.83-22.08L232.83-22.08Q232.83-34.37 219.90-34.43L219.90-34.43L219.90-34.43Q216.83-34.43 213.70-32.26L213.70-32.26L213.70-32.26Q210.50-30.14 209.09-26.43L209.09-26.43L209.09-34.30L203.14-34.30L203.14 0.19L209.09 0.19L209.09-16.32L209.09-16.32Q209.09-22.59 211.90-25.79L211.90-25.79L211.90-25.79Q214.66-28.99 219.78-28.99L219.78-28.99L219.78-28.99Q226.88-28.99 226.88-20.42L226.88-20.42ZM267.78 2.88L267.78-34.43L262.46-34.43L262.46-30.08L262.46-30.08Q258.82-34.24 254.34-34.30L254.34-34.30L254.14-34.30L254.14-34.30Q247.94-34.30 243.71-29.82L243.71-29.82L243.71-29.82Q239.55-25.28 239.55-17.60L239.55-17.60L239.55-17.60Q239.55-9.92 243.65-4.61L243.65-4.61L243.65-4.61Q247.81 0.64 254.34 0.64L254.34 0.64L254.34 0.64Q259.84-0.32 262.14-4.93L262.14-4.93L262.14 2.88L262.14 2.88Q262.14 4.80 260.67 7.62L260.67 7.62L260.67 7.62Q259.14 10.24 253.38 10.24L253.38 10.24L253.38 10.24Q247.62 10.24 244.48 7.49L244.48 7.49L240.45 10.24L240.45 10.24Q243.84 15.36 253.38 15.36L253.38 15.36L253.38 15.36Q267.58 15.23 267.78 2.88L267.78 2.88ZM245.89-17.02L245.89-17.02L245.89-17.02Q246.02-22.78 248.45-25.92L248.45-25.92L248.45-25.92Q250.88-28.93 254.53-28.93L254.53-28.93L254.53-28.93Q261.63-28.93 262.14-19.78L262.14-19.78L262.14-13.18L262.14-13.18Q261.31-4.74 254.53-4.74L254.53-4.74L254.53-4.74Q250.43-4.74 248.26-8.38L248.26-8.38L248.26-8.38Q245.95-12.03 245.89-17.02L245.89-17.02ZM277.38 0L310.02 0L310.02-4.99L283.46-4.99L283.46-22.08L304.70-22.08L304.70-27.07L283.46-27.07L283.46-41.09L309.31-41.09L309.31-46.08L277.38-46.08L277.38 0ZM336.26-23.55L336.26-23.55L336.13-22.66L336.13-22.66Q320.51-22.34 316.74-16.38L316.74-16.38L316.74-16.38Q314.82-13.18 314.82-9.09L314.82-9.09L314.82-8.90L314.82-8.90Q314.82-4.93 318.02-2.11L318.02-2.11L318.02-2.11Q321.22 0.70 327.42 0.70L327.42 0.70L327.42 0.70Q333.06 0.06 336.13-5.25L336.13-5.25L336.13-5.25Q336.38-1.54 339.01 0L339.01 0L343.68 0.13L343.68 0.13Q341.76-3.71 341.76-6.27L341.76-6.27L341.76-20.74L341.76-20.74Q341.76-34.43 329.15-34.43L329.15-34.43L328.83-34.43L328.83-34.43Q320.19-34.43 315.14-29.38L315.14-29.38L318.34-26.30L318.34-26.30Q322.18-29.89 329.22-29.89L329.22-29.89L329.22-29.89Q336.26-29.89 336.26-23.55ZM321.66-6.27L321.66-6.27L321.66-6.27Q320.70-7.62 320.70-9.66L320.70-9.66L320.70-9.66Q320.70-13.38 324.67-15.74L324.67-15.74L324.67-15.74Q328.64-18.18 336.13-18.43L336.13-18.43L336.13-13.38L336.13-13.38Q336.13-12.67 335.68-11.39L335.68-11.39L335.68-11.39Q334.59-7.74 332.42-6.34L332.42-6.34L332.42-6.34Q330.30-4.86 326.46-4.86L326.46-4.86L326.46-4.86Q322.56-4.86 321.66-6.27L321.66-6.27ZM377.34 2.88L377.34-34.43L372.03-34.43L372.03-30.08L372.03-30.08Q368.38-34.24 363.90-34.30L363.90-34.30L363.71-34.30L363.71-34.30Q357.50-34.30 353.28-29.82L353.28-29.82L353.28-29.82Q349.12-25.28 349.12-17.60L349.12-17.60L349.12-17.60Q349.12-9.92 353.22-4.61L353.22-4.61L353.22-4.61Q357.38 0.64 363.90 0.64L363.90 0.64L363.90 0.64Q369.41-0.32 371.71-4.93L371.71-4.93L371.71 2.88L371.71 2.88Q371.71 4.80 370.24 7.62L370.24 7.62L370.24 7.62Q368.70 10.24 362.94 10.24L362.94 10.24L362.94 10.24Q357.18 10.24 354.05 7.49L354.05 7.49L350.02 10.24L350.02 10.24Q353.41 15.36 362.94 15.36L362.94 15.36L362.94 15.36Q377.15 15.23 377.34 2.88L377.34 2.88ZM355.46-17.02L355.46-17.02L355.46-17.02Q355.58-22.78 358.02-25.92L358.02-25.92L358.02-25.92Q360.45-28.93 364.10-28.93L364.10-28.93L364.10-28.93Q371.20-28.93 371.71-19.78L371.71-19.78L371.71-13.18L371.71-13.18Q370.88-4.74 364.10-4.74L364.10-4.74L364.10-4.74Q360-4.74 357.82-8.38L357.82-8.38L357.82-8.38Q355.52-12.03 355.46-17.02L355.46-17.02ZM387.20 0.19L393.09 0.19L393.09-47.36L387.20-47.36L387.20 0.19ZM406.85-14.40L429.82-14.40L429.82-14.40Q429.82-28.54 423.30-32.45L423.30-32.45L423.30-32.45Q420.54-33.92 416.77-33.92L416.77-33.92L416.77-33.92Q409.86-33.92 405.44-28.93L405.44-28.93L405.44-28.93Q401.02-23.94 401.02-16.51L401.02-16.51L401.02-16.51Q401.02-9.02 405.38-4.10L405.38-4.10L405.38-4.10Q409.66 0.77 416.64 0.77L416.64 0.77L416.64 0.77Q423.62 0.77 428.86-2.56L428.86-2.56L428.86-8.70L428.86-8.70Q424.32-4.67 416.70-4.67L416.70-4.67L416.70-4.67Q412.42-4.67 409.86-6.91L409.86-6.91L409.86-6.91Q407.36-9.09 406.85-14.40L406.85-14.40ZM416.58-28.22L416.70-28.22L416.70-28.22Q420.86-28.22 422.72-26.11L422.72-26.11L422.72-26.11Q424.51-24 424.83-19.46L424.83-19.46L406.85-19.46L406.85-19.46Q408-28.22 416.58-28.22L416.58-28.22Z"
                  fill="#4876EE"></path>
        </g>
    </g>
    <style>text {
        font-size: 64px;
        font-family: Arial Black;
        dominant-baseline: central;
        text-anchor: middle;
        }
    </style>
</svg>
